<svg width="21" height="25" viewBox="0 0 21 25" fill="none" xmlns="http://www.w3.org/2000/svg">
<path opacity="0.4" d="M16.5 5.33325H4.5V0.833252L7.5 2.33325L10.5 0.833252L13.5 2.33325L16.5 0.833252V5.33325Z" fill="#232C47"/>
<path d="M14.7 15.0833H13.9167C12.8455 15.5775 11.6798 15.8334 10.5 15.8334C9.32025 15.8334 8.15453 15.5775 7.08328 15.0833H6.3C4.62914 15.0833 3.02671 15.747 1.84523 16.9285C0.663748 18.11 0 19.7124 0 21.3833L0 22.5833C0 23.18 0.237053 23.7523 0.65901 24.1742C1.08097 24.5962 1.65326 24.8333 2.25 24.8333H18.75C19.3467 24.8333 19.919 24.5962 20.341 24.1742C20.7629 23.7523 21 23.18 21 22.5833V21.3833C21 19.7124 20.3363 18.11 19.1548 16.9285C17.9733 15.747 16.3709 15.0833 14.7 15.0833ZM10.5 13.5833C12.0913 13.5833 13.6174 12.9511 14.7426 11.8259C15.8679 10.7007 16.5 9.17455 16.5 7.58325V6.83325H4.5V7.58325C4.5 9.17455 5.13214 10.7007 6.25736 11.8259C7.38258 12.9511 8.9087 13.5833 10.5 13.5833Z" fill="#232C47"/>
</svg>
