<svg width="23" height="21" viewBox="0 0 23 21" fill="none" xmlns="http://www.w3.org/2000/svg">
<path d="M16.25 8.75V2.5C16.25 1.12109 15.1289 0 13.75 0H2.5C1.12109 0 0 1.12109 0 2.5V8.75C0 10.1289 1.12109 11.25 2.5 11.25V13.3672C2.5 13.6797 2.85547 13.8594 3.10547 13.6719L6.33984 11.2461H13.75C15.1289 11.25 16.25 10.1289 16.25 8.75ZM20 6.25H17.5V8.75C17.5 10.8164 15.8164 12.5 13.75 12.5H7.5V15C7.5 16.3789 8.62109 17.5 10 17.5H14.9102L18.1445 19.9258C18.3945 20.1133 18.75 19.9336 18.75 19.6211V17.5H20C21.3789 17.5 22.5 16.3789 22.5 15V8.75C22.5 7.37109 21.3789 6.25 20 6.25Z" fill="#878B91"/>
</svg>
