<svg width="21" height="24" viewBox="0 0 21 24" fill="none" xmlns="http://www.w3.org/2000/svg">
<path d="M20.4375 22.5H19.5V1.125C19.5 0.826631 19.3815 0.540483 19.1705 0.329505C18.9595 0.118526 18.6734 0 18.375 0L2.625 0C2.32663 0 2.04048 0.118526 1.8295 0.329505C1.61853 0.540483 1.5 0.826631 1.5 1.125V22.5H0.5625C0.413316 22.5 0.270242 22.5593 0.164752 22.6648C0.0592632 22.7702 0 22.9133 0 23.0625L0 24H21V23.0625C21 22.9133 20.9407 22.7702 20.8352 22.6648C20.7298 22.5593 20.5867 22.5 20.4375 22.5ZM6 3.5625C6 3.41332 6.05926 3.27024 6.16475 3.16475C6.27024 3.05926 6.41332 3 6.5625 3H8.4375C8.58668 3 8.72976 3.05926 8.83525 3.16475C8.94074 3.27024 9 3.41332 9 3.5625V5.4375C9 5.58668 8.94074 5.72976 8.83525 5.83525C8.72976 5.94074 8.58668 6 8.4375 6H6.5625C6.41332 6 6.27024 5.94074 6.16475 5.83525C6.05926 5.72976 6 5.58668 6 5.4375V3.5625ZM6 8.0625C6 7.91332 6.05926 7.77024 6.16475 7.66475C6.27024 7.55926 6.41332 7.5 6.5625 7.5H8.4375C8.58668 7.5 8.72976 7.55926 8.83525 7.66475C8.94074 7.77024 9 7.91332 9 8.0625V9.9375C9 10.0867 8.94074 10.2298 8.83525 10.3352C8.72976 10.4407 8.58668 10.5 8.4375 10.5H6.5625C6.41332 10.5 6.27024 10.4407 6.16475 10.3352C6.05926 10.2298 6 10.0867 6 9.9375V8.0625ZM8.4375 15H6.5625C6.41332 15 6.27024 14.9407 6.16475 14.8352C6.05926 14.7298 6 14.5867 6 14.4375V12.5625C6 12.4133 6.05926 12.2702 6.16475 12.1648C6.27024 12.0593 6.41332 12 6.5625 12H8.4375C8.58668 12 8.72976 12.0593 8.83525 12.1648C8.94074 12.2702 9 12.4133 9 12.5625V14.4375C9 14.5867 8.94074 14.7298 8.83525 14.8352C8.72976 14.9407 8.58668 15 8.4375 15ZM12 22.5H9V18.5625C9 18.4133 9.05926 18.2702 9.16475 18.1648C9.27024 18.0593 9.41332 18 9.5625 18H11.4375C11.5867 18 11.7298 18.0593 11.8352 18.1648C11.9407 18.2702 12 18.4133 12 18.5625V22.5ZM15 14.4375C15 14.5867 14.9407 14.7298 14.8352 14.8352C14.7298 14.9407 14.5867 15 14.4375 15H12.5625C12.4133 15 12.2702 14.9407 12.1648 14.8352C12.0593 14.7298 12 14.5867 12 14.4375V12.5625C12 12.4133 12.0593 12.2702 12.1648 12.1648C12.2702 12.0593 12.4133 12 12.5625 12H14.4375C14.5867 12 14.7298 12.0593 14.8352 12.1648C14.9407 12.2702 15 12.4133 15 12.5625V14.4375ZM15 9.9375C15 10.0867 14.9407 10.2298 14.8352 10.3352C14.7298 10.4407 14.5867 10.5 14.4375 10.5H12.5625C12.4133 10.5 12.2702 10.4407 12.1648 10.3352C12.0593 10.2298 12 10.0867 12 9.9375V8.0625C12 7.91332 12.0593 7.77024 12.1648 7.66475C12.2702 7.55926 12.4133 7.5 12.5625 7.5H14.4375C14.5867 7.5 14.7298 7.55926 14.8352 7.66475C14.9407 7.77024 15 7.91332 15 8.0625V9.9375ZM15 5.4375C15 5.58668 14.9407 5.72976 14.8352 5.83525C14.7298 5.94074 14.5867 6 14.4375 6H12.5625C12.4133 6 12.2702 5.94074 12.1648 5.83525C12.0593 5.72976 12 5.58668 12 5.4375V3.5625C12 3.41332 12.0593 3.27024 12.1648 3.16475C12.2702 3.05926 12.4133 3 12.5625 3H14.4375C14.5867 3 14.7298 3.05926 14.8352 3.16475C14.9407 3.27024 15 3.41332 15 3.5625V5.4375Z" fill="#CCCCCC"/>
</svg>
