<svg width="25" height="28" viewBox="0 0 25 28" fill="none" xmlns="http://www.w3.org/2000/svg">
<path d="M23.8438 26.25H22.75V1.3125C22.75 0.964403 22.6117 0.630564 22.3656 0.384422C22.1194 0.138281 21.7856 0 21.4375 0L3.0625 0C2.7144 0 2.38056 0.138281 2.13442 0.384422C1.88828 0.630564 1.75 0.964403 1.75 1.3125V26.25H0.65625C0.482202 26.25 0.315282 26.3191 0.192211 26.4422C0.0691404 26.5653 0 26.7322 0 26.9062L0 28H24.5V26.9062C24.5 26.7322 24.4309 26.5653 24.3078 26.4422C24.1847 26.3191 24.0178 26.25 23.8438 26.25ZM7 4.15625C7 3.9822 7.06914 3.81528 7.19221 3.69221C7.31528 3.56914 7.4822 3.5 7.65625 3.5H9.84375C10.0178 3.5 10.1847 3.56914 10.3078 3.69221C10.4309 3.81528 10.5 3.9822 10.5 4.15625V6.34375C10.5 6.5178 10.4309 6.68472 10.3078 6.80779C10.1847 6.93086 10.0178 7 9.84375 7H7.65625C7.4822 7 7.31528 6.93086 7.19221 6.80779C7.06914 6.68472 7 6.5178 7 6.34375V4.15625ZM7 9.40625C7 9.2322 7.06914 9.06528 7.19221 8.94221C7.31528 8.81914 7.4822 8.75 7.65625 8.75H9.84375C10.0178 8.75 10.1847 8.81914 10.3078 8.94221C10.4309 9.06528 10.5 9.2322 10.5 9.40625V11.5938C10.5 11.7678 10.4309 11.9347 10.3078 12.0578C10.1847 12.1809 10.0178 12.25 9.84375 12.25H7.65625C7.4822 12.25 7.31528 12.1809 7.19221 12.0578C7.06914 11.9347 7 11.7678 7 11.5938V9.40625ZM9.84375 17.5H7.65625C7.4822 17.5 7.31528 17.4309 7.19221 17.3078C7.06914 17.1847 7 17.0178 7 16.8438V14.6562C7 14.4822 7.06914 14.3153 7.19221 14.1922C7.31528 14.0691 7.4822 14 7.65625 14H9.84375C10.0178 14 10.1847 14.0691 10.3078 14.1922C10.4309 14.3153 10.5 14.4822 10.5 14.6562V16.8438C10.5 17.0178 10.4309 17.1847 10.3078 17.3078C10.1847 17.4309 10.0178 17.5 9.84375 17.5ZM14 26.25H10.5V21.6562C10.5 21.4822 10.5691 21.3153 10.6922 21.1922C10.8153 21.0691 10.9822 21 11.1562 21H13.3438C13.5178 21 13.6847 21.0691 13.8078 21.1922C13.9309 21.3153 14 21.4822 14 21.6562V26.25ZM17.5 16.8438C17.5 17.0178 17.4309 17.1847 17.3078 17.3078C17.1847 17.4309 17.0178 17.5 16.8438 17.5H14.6562C14.4822 17.5 14.3153 17.4309 14.1922 17.3078C14.0691 17.1847 14 17.0178 14 16.8438V14.6562C14 14.4822 14.0691 14.3153 14.1922 14.1922C14.3153 14.0691 14.4822 14 14.6562 14H16.8438C17.0178 14 17.1847 14.0691 17.3078 14.1922C17.4309 14.3153 17.5 14.4822 17.5 14.6562V16.8438ZM17.5 11.5938C17.5 11.7678 17.4309 11.9347 17.3078 12.0578C17.1847 12.1809 17.0178 12.25 16.8438 12.25H14.6562C14.4822 12.25 14.3153 12.1809 14.1922 12.0578C14.0691 11.9347 14 11.7678 14 11.5938V9.40625C14 9.2322 14.0691 9.06528 14.1922 8.94221C14.3153 8.81914 14.4822 8.75 14.6562 8.75H16.8438C17.0178 8.75 17.1847 8.81914 17.3078 8.94221C17.4309 9.06528 17.5 9.2322 17.5 9.40625V11.5938ZM17.5 6.34375C17.5 6.5178 17.4309 6.68472 17.3078 6.80779C17.1847 6.93086 17.0178 7 16.8438 7H14.6562C14.4822 7 14.3153 6.93086 14.1922 6.80779C14.0691 6.68472 14 6.5178 14 6.34375V4.15625C14 3.9822 14.0691 3.81528 14.1922 3.69221C14.3153 3.56914 14.4822 3.5 14.6562 3.5H16.8438C17.0178 3.5 17.1847 3.56914 17.3078 3.69221C17.4309 3.81528 17.5 3.9822 17.5 4.15625V6.34375Z" fill="#232C47"/>
</svg>
