<svg width="24" height="20" viewBox="0 0 24 20" fill="none" xmlns="http://www.w3.org/2000/svg">
<path d="M22.2 10.8H16.8V7.82963C16.8 6.84263 17.5823 6.01688 18.5693 6.00038C18.8082 5.99629 19.0455 6.03983 19.2674 6.12843C19.4894 6.21704 19.6914 6.34894 19.8618 6.51646C20.0322 6.68397 20.1676 6.88374 20.26 7.10411C20.3524 7.32448 20.4 7.56104 20.4 7.8V8.1C20.4 8.17957 20.4316 8.25587 20.4879 8.31213C20.5441 8.36839 20.6204 8.4 20.7 8.4H21.3C21.3796 8.4 21.4559 8.36839 21.5121 8.31213C21.5684 8.25587 21.6 8.17957 21.6 8.1V7.8375C21.6 6.2145 20.325 4.85588 18.7028 4.80188C18.3004 4.78809 17.8994 4.85543 17.5236 4.99989C17.1478 5.14435 16.8049 5.36297 16.5154 5.64273C16.2258 5.9225 15.9956 6.25767 15.8383 6.62829C15.6811 6.99891 15.6 7.3974 15.6 7.8V10.8H15C14.5226 10.8 14.0648 10.9896 13.7272 11.3272C13.3896 11.6648 13.2 12.1226 13.2 12.6V17.4C13.2 17.8774 13.3896 18.3352 13.7272 18.6728C14.0648 19.0104 14.5226 19.2 15 19.2H22.2C22.6774 19.2 23.1352 19.0104 23.4728 18.6728C23.8104 18.3352 24 17.8774 24 17.4V12.6C24 12.1226 23.8104 11.6648 23.4728 11.3272C23.1352 10.9896 22.6774 10.8 22.2 10.8ZM22.8 17.4C22.8 17.5591 22.7368 17.7117 22.6243 17.8243C22.5117 17.9368 22.3591 18 22.2 18H15C14.8409 18 14.6883 17.9368 14.5757 17.8243C14.4632 17.7117 14.4 17.5591 14.4 17.4V12.6C14.4 12.4409 14.4632 12.2883 14.5757 12.1757C14.6883 12.0632 14.8409 12 15 12H22.2C22.3591 12 22.5117 12.0632 22.6243 12.1757C22.7368 12.2883 22.8 12.4409 22.8 12.6V17.4ZM8.4 9.6C9.34935 9.6 10.2774 9.31849 11.0667 8.79106C11.8561 8.26363 12.4713 7.51397 12.8346 6.63688C13.1979 5.7598 13.293 4.79468 13.1078 3.86357C12.9226 2.93246 12.4654 2.07718 11.7941 1.40589C11.1228 0.734598 10.2675 0.277442 9.33643 0.0922328C8.40533 -0.0929762 7.44021 0.00207974 6.56312 0.36538C5.68603 0.728681 4.93638 1.34391 4.40895 2.13326C3.88152 2.92262 3.6 3.85065 3.6 4.8C3.6 6.07304 4.10571 7.29394 5.00589 8.19411C5.90606 9.09429 7.12696 9.6 8.4 9.6ZM8.4 1.2C9.11201 1.2 9.80804 1.41114 10.4001 1.80671C10.9921 2.20228 11.4535 2.76453 11.726 3.42234C11.9984 4.08016 12.0697 4.804 11.9308 5.50233C11.7919 6.20066 11.4491 6.84212 10.9456 7.34559C10.4421 7.84906 9.80066 8.19192 9.10233 8.33083C8.40399 8.46974 7.68015 8.39844 7.02234 8.12597C6.36453 7.85349 5.80228 7.39207 5.40671 6.80006C5.01114 6.20804 4.8 5.51201 4.8 4.8C4.8 3.84522 5.17929 2.92955 5.85442 2.25442C6.52955 1.57929 7.44522 1.2 8.4 1.2ZM18.6 13.8C18.3627 13.8 18.1307 13.8704 17.9333 14.0022C17.736 14.1341 17.5822 14.3215 17.4913 14.5408C17.4005 14.7601 17.3768 15.0013 17.4231 15.2341C17.4694 15.4669 17.5837 15.6807 17.7515 15.8485C17.9193 16.0164 18.1331 16.1306 18.3659 16.1769C18.5987 16.2232 18.84 16.1995 19.0592 16.1087C19.2785 16.0178 19.4659 15.864 19.5978 15.6667C19.7296 15.4693 19.8 15.2373 19.8 15C19.8 14.6817 19.6736 14.3765 19.4485 14.1515C19.2235 13.9264 18.9183 13.8 18.6 13.8ZM1.8 18C1.64087 18 1.48826 17.9368 1.37574 17.8243C1.26321 17.7117 1.2 17.5591 1.2 17.4V15.84C1.2007 14.8218 1.60549 13.8455 2.32548 13.1255C3.04547 12.4055 4.02178 12.0007 5.04 12C5.775 12 6.50625 12.6 8.4 12.6C10.2938 12.6 11.025 12 11.76 12C11.8613 12 11.9588 12.0225 12.0563 12.03C12.1366 11.6158 12.304 11.2233 12.5475 10.8788C12.2863 10.8314 12.0217 10.805 11.7563 10.8C10.68 10.8 10.1625 11.4 8.39625 11.4C6.63 11.4 6.11625 10.8 5.03625 10.8C2.2575 10.8 0 13.0575 0 15.84V17.4C0 17.8774 0.189642 18.3352 0.527208 18.6728C0.864773 19.0104 1.32261 19.2 1.8 19.2H12.615C12.3413 18.8473 12.1515 18.437 12.06 18H1.8Z" fill="#232C47"/>
</svg>
