<svg width="24" height="20" viewBox="0 0 24 20" fill="none" xmlns="http://www.w3.org/2000/svg">
<path d="M23.5612 13.4362L22.9425 13.08C22.9725 12.7612 22.9725 12.4387 22.9425 12.12L23.565 11.7637C23.9212 11.5575 24.0825 11.1375 23.9587 10.7512C23.6887 9.87374 23.2125 9.04874 22.5825 8.36999C22.305 8.06624 21.8587 7.99874 21.5062 8.20499L20.8875 8.56124C20.625 8.37374 20.3475 8.21249 20.055 8.08124V7.36874C20.055 6.95624 19.7737 6.60749 19.3725 6.51749C18.4762 6.31499 17.5237 6.31499 16.6275 6.51749C16.2262 6.60749 15.945 6.95999 15.945 7.36874V8.08124C15.6525 8.21249 15.375 8.37374 15.1125 8.56124L14.4937 8.20499C14.1375 7.99874 13.695 8.06624 13.4175 8.36999C12.7912 9.04874 12.315 9.87374 12.0412 10.7475C11.9175 11.1375 12.0862 11.565 12.4387 11.7675L13.0575 12.1237C13.0275 12.4425 13.0275 12.765 13.0575 13.0837L12.435 13.44C12.0862 13.6425 11.9175 14.0737 12.0412 14.4562C12.3112 15.3337 12.7875 16.1587 13.4175 16.8375C13.695 17.1375 14.1375 17.205 14.4937 17.0025L15.1125 16.6462C15.375 16.8337 15.6525 16.995 15.945 17.1262V17.8387C15.945 18.2512 16.2262 18.6 16.6275 18.69C17.0775 18.7912 17.5387 18.84 18 18.84C18.4612 18.84 18.9262 18.7912 19.3725 18.69C19.7737 18.6 20.055 18.2475 20.055 17.8387V17.1262C20.3475 16.995 20.625 16.8337 20.8875 16.6462L21.5062 17.0025C21.8587 17.205 22.305 17.1375 22.5825 16.8375C23.2087 16.1587 23.685 15.3337 23.9587 14.46C24.0825 14.07 23.9137 13.6387 23.5612 13.4362ZM21.6262 13.7062L22.7287 14.3437C22.5337 14.88 22.2412 15.3862 21.8737 15.825L20.7712 15.1875C19.9687 15.8737 19.8525 15.9412 18.855 16.2937V17.5687C18.2887 17.6662 17.7075 17.6662 17.145 17.5687V16.2937C16.1362 15.9375 16.0125 15.855 15.2287 15.1875L14.1262 15.825C13.7587 15.3825 13.4662 14.88 13.2712 14.3437L14.3737 13.7062C14.19 12.7012 14.1787 12.5587 14.3737 11.4937L13.2712 10.8562C13.4662 10.32 13.7587 9.81749 14.1262 9.37499L15.2287 10.0125C16.0312 9.32624 16.1475 9.25874 17.145 8.90624V7.63124C17.7112 7.53749 18.2962 7.53749 18.855 7.63124V8.90624C19.86 9.26249 19.9875 9.34124 20.7712 10.0125L21.8737 9.37499C22.2412 9.81749 22.5337 10.32 22.7287 10.8562L21.6262 11.4937C21.81 12.4987 21.8212 12.6412 21.6262 13.7062ZM18 10.1812C16.665 10.1812 15.5812 11.2687 15.5812 12.6C15.5812 13.9312 16.665 15.0187 18 15.0187C19.335 15.0187 20.4187 13.9312 20.4187 12.6C20.4187 11.2687 19.335 10.1812 18 10.1812ZM18 13.8187C17.3287 13.8187 16.7812 13.2712 16.7812 12.6C16.7812 11.9287 17.3287 11.3812 18 11.3812C18.6712 11.3812 19.2187 11.9287 19.2187 12.6C19.2187 13.2712 18.6712 13.8187 18 13.8187ZM8.39999 9.59999C11.0512 9.59999 13.2 7.45124 13.2 4.8C13.2 2.14875 11.0512 0 8.39999 0C5.74874 0 3.6 2.14875 3.6 4.8C3.6 7.45124 5.74874 9.59999 8.39999 9.59999ZM8.39999 1.2C10.3837 1.2 12 2.81625 12 4.8C12 6.78374 10.3837 8.39999 8.39999 8.39999C6.41624 8.39999 4.8 6.78374 4.8 4.8C4.8 2.81625 6.41624 1.2 8.39999 1.2ZM1.8 18C1.47 18 1.2 17.73 1.2 17.4V15.84C1.2 13.7212 2.92125 12 5.04 12C5.77499 12 6.50624 12.6 8.39999 12.6C9.11999 12.6 9.82499 12.4762 10.5187 12.2737C10.5375 11.8387 10.5862 11.4112 10.6762 10.9987C10.3425 11.1 9.54749 11.4 8.39999 11.4C6.63374 11.4 6.11999 10.8 5.04 10.8C2.2575 10.8 0 13.0575 0 15.84V17.4C0 18.3937 0.806249 19.2 1.8 19.2H14.4375C13.8375 18.8775 13.29 18.4687 12.8062 18H1.8Z" fill="#232C47"/>
</svg>
