<svg width="16" height="16" viewBox="0 0 16 16" fill="none" xmlns="http://www.w3.org/2000/svg">
<path d="M15.0136 9.39602L13.9616 8.7887C14.0278 8.26498 14.0278 7.73502 13.9616 7.21131L15.0136 6.60398C15.3225 6.42566 15.4715 6.05876 15.3699 5.71685C15.0082 4.49914 14.3643 3.40304 13.5139 2.5041C13.2677 2.24378 12.8747 2.18681 12.5643 2.36598L11.514 2.97236C11.0938 2.65261 10.6349 2.38728 10.1482 2.18268V0.969328C10.1482 0.610295 9.90134 0.29823 9.55192 0.215553C8.3376 -0.0718348 7.06424 -0.071867 5.84966 0.215553C5.50027 0.29823 5.2534 0.610263 5.2534 0.969328V2.18268C4.76667 2.38727 4.30777 2.65261 3.88763 2.97236L2.83724 2.36598C2.52688 2.18681 2.13388 2.24378 1.88765 2.5041C1.03733 3.40304 0.393427 4.49917 0.0316842 5.71685C-0.0698966 6.05876 0.0791036 6.42563 0.388007 6.60398L1.43994 7.21131C1.37382 7.73502 1.37382 8.26498 1.43994 8.7887L0.388007 9.39602C0.0791036 9.57434 -0.0698966 9.94125 0.0316842 10.2831C0.393427 11.5008 1.03733 12.597 1.88765 13.4959C2.13391 13.7562 2.52691 13.8132 2.83724 13.6341L3.88763 13.0277C4.30777 13.3474 4.76667 13.6127 5.2534 13.8173V15.0307C5.2534 15.3897 5.50024 15.7018 5.84966 15.7844C7.06402 16.0718 8.33734 16.0719 9.55192 15.7844C9.90131 15.7018 10.1482 15.3897 10.1482 15.0307V13.8173C10.6349 13.6127 11.0938 13.3474 11.514 13.0277L12.5643 13.6341C12.8747 13.8132 13.2677 13.7563 13.5139 13.4959C14.3643 12.597 15.0082 11.5008 15.3699 10.2831C15.4715 9.94125 15.3225 9.57437 15.0136 9.39602ZM12.9013 12.6367L11.4075 11.7741C10.5369 12.5183 10.2282 12.7056 9.11592 13.0986V14.8237C8.18233 15.0163 7.21925 15.0163 6.28566 14.8237V13.0986C5.20111 12.7154 4.88711 12.5375 3.99408 11.7741L2.50024 12.6367C1.86443 11.9241 1.38123 11.0887 1.08317 10.1864L2.57766 9.32386C2.36685 8.18137 2.36675 7.81921 2.57766 6.67614L1.08317 5.81356C1.38123 4.91133 1.86446 4.07585 2.50024 3.36294L3.99408 4.22617C4.87721 3.47024 5.18966 3.28859 6.28566 2.90136V1.17626C7.21922 0.983361 8.18236 0.983361 9.11592 1.17626V2.9014C10.212 3.28865 10.5245 3.47033 11.4075 4.2262L12.9013 3.36298C13.5371 4.07585 14.0203 4.91133 14.3184 5.81359L12.8239 6.67618C13.0348 7.81895 13.0348 8.18082 12.8239 9.32389L14.3184 10.1865C14.0203 11.0887 13.5372 11.9242 12.9013 12.6367ZM7.70079 4.90324C5.99321 4.90324 4.60401 6.29243 4.60401 8.00002C4.60401 9.7076 5.99321 11.0968 7.70079 11.0968C9.40838 11.0968 10.7976 9.7076 10.7976 8.00002C10.7976 6.29243 9.40838 4.90324 7.70079 4.90324ZM7.70079 10.0645C6.5624 10.0645 5.63627 9.13841 5.63627 8.00002C5.63627 6.86163 6.5624 5.9355 7.70079 5.9355C8.83918 5.9355 9.76531 6.86163 9.76531 8.00002C9.76531 9.13841 8.83918 10.0645 7.70079 10.0645Z" fill="#4B5268"/>
</svg>
