<svg width="20" height="20" viewBox="0 0 20 20" fill="none" xmlns="http://www.w3.org/2000/svg">
<path opacity="0.4" d="M15.3039 7.34835C14.8905 7.76178 14.3353 7.91552 13.7956 7.86203C14.7329 9.5289 14.511 11.6767 13.0939 13.0936C12.519 13.6793 11.7916 14.0923 10.994 14.2856C10.1964 14.479 9.36061 14.445 8.58135 14.1875C7.80209 13.9301 7.11055 13.4594 6.58513 12.829C6.05971 12.1986 5.72144 11.4335 5.60866 10.6206C5.49588 9.8077 5.61311 8.97947 5.94706 8.22979C6.28101 7.48012 6.81831 6.83901 7.49806 6.37914C8.1778 5.91928 8.97279 5.65905 9.79289 5.62798C10.613 5.5969 11.4254 5.79622 12.138 6.20333C12.085 5.66408 12.239 5.10965 12.652 4.69667C12.7341 4.61451 12.8378 4.5756 12.9303 4.51189C12.0138 4.02292 11.0125 3.75002 10 3.75002C8.9722 3.75009 7.96028 4.00364 7.05387 4.4882C6.14746 4.97276 5.37454 5.67337 4.80357 6.52799C4.23261 7.3826 3.88121 8.36484 3.78052 9.3877C3.67982 10.4106 3.83293 11.4425 4.22629 12.392C4.61965 13.3416 5.24111 14.1794 6.03563 14.8314C6.83015 15.4835 7.7732 15.9295 8.78126 16.13C9.78932 16.3304 10.8313 16.2792 11.8148 15.9809C12.7983 15.6825 13.6931 15.1462 14.4199 14.4194C16.413 12.4265 16.7503 9.43399 15.4887 7.0701C15.4251 7.16242 15.386 7.26618 15.3039 7.34835ZM17.0718 2.92894C15.6209 1.47404 13.7557 0.503116 11.7317 0.149078C9.70761 -0.204961 7.62361 0.0751875 5.76492 0.951175C5.85038 1.02159 5.9421 1.08118 6.02206 1.16114C6.39713 1.54101 6.67722 2.00406 6.83957 2.51261C8.32921 1.88532 9.97196 1.71603 11.5582 2.02632C13.1445 2.33661 14.6024 3.11243 15.7459 4.25478C18.4637 6.97229 18.8428 11.1485 16.8977 14.2817C17.2191 14.3506 17.52 14.4937 17.7764 14.6995C18.0327 14.9053 18.2375 15.1681 18.3743 15.467C20.9121 11.5888 20.4792 6.33593 17.0718 2.92894ZM13.1604 17.4874C11.6708 18.1147 10.028 18.284 8.44177 17.9737C6.8555 17.6634 5.39763 16.8876 4.25414 15.7453C1.53626 13.0277 1.15719 8.85149 3.10228 5.71825H3.10244C2.78099 5.64934 2.48009 5.50629 2.2237 5.30052C1.96732 5.09475 1.76254 4.83193 1.62569 4.53302C-0.912122 8.41127 -0.479183 13.6641 2.92817 17.0711C4.37918 18.526 6.24437 19.4969 8.26843 19.851C10.2925 20.205 12.3765 19.9249 14.2352 19.0489C14.1496 18.9784 14.0581 18.9189 13.9779 18.8388C13.6029 18.4589 13.3228 17.9959 13.1604 17.4874Z" fill="#232C47"/>
<path d="M9.99984 7.50002C9.5054 7.50007 9.02208 7.64674 8.61099 7.92147C8.1999 8.19621 7.87951 8.58667 7.69033 9.04349C7.50116 9.50031 7.45169 10.003 7.54818 10.4879C7.64467 10.9728 7.8828 11.4183 8.23244 11.7679C8.58208 12.1175 9.02754 12.3556 9.51248 12.452C9.99743 12.5484 10.5001 12.4989 10.9569 12.3097C11.4137 12.1205 11.8041 11.8 12.0788 11.3889C12.3535 10.9778 12.5001 10.4945 12.5001 10C12.5001 9.33694 12.2366 8.70104 11.7677 8.2322C11.2988 7.76336 10.6629 7.49999 9.99984 7.50002ZM2.04397 2.04508C1.73805 2.35103 1.52973 2.74082 1.44534 3.16517C1.36095 3.58951 1.40428 4.02935 1.56986 4.42907C1.73545 4.82879 2.01584 5.17043 2.37558 5.4108C2.73532 5.65116 3.15826 5.77946 3.59092 5.77946C4.02358 5.77946 4.44652 5.65116 4.80626 5.4108C5.166 5.17043 5.44639 4.82879 5.61198 4.42907C5.77756 4.02935 5.82089 3.58951 5.7365 3.16517C5.65211 2.74082 5.44379 2.35103 5.13787 2.04508C4.93474 1.8419 4.69357 1.68073 4.42814 1.57076C4.16271 1.4608 3.87822 1.40421 3.59092 1.40421C3.30362 1.40421 3.01913 1.4608 2.7537 1.57076C2.48827 1.68073 2.2471 1.8419 2.04397 2.04508ZM15.3038 4.69667C15.0415 4.43441 14.7074 4.25581 14.3437 4.18344C13.9799 4.11107 13.6029 4.14819 13.2603 4.29011C12.9176 4.43202 12.6247 4.67236 12.4187 4.98073C12.2126 5.28909 12.1027 5.65164 12.1027 6.02251C12.1027 6.39338 12.2126 6.75592 12.4187 7.06429C12.6247 7.37266 12.9176 7.61299 13.2603 7.75491C13.6029 7.89683 13.9799 7.93395 14.3437 7.86158C14.7074 7.78921 15.0415 7.61061 15.3038 7.34835C15.6553 6.99667 15.8528 6.51976 15.8528 6.02251C15.8528 5.52525 15.6553 5.04835 15.3038 4.69667ZM17.9557 14.8613C17.6498 14.5554 17.26 14.347 16.8356 14.2626C16.4113 14.1781 15.9714 14.2214 15.5716 14.387C15.1719 14.5526 14.8302 14.833 14.5898 15.1927C14.3494 15.5525 14.2211 15.9755 14.2211 16.4081C14.2211 16.8408 14.3494 17.2638 14.5898 17.6235C14.8302 17.9833 15.1719 18.2637 15.5716 18.4293C15.9714 18.5948 16.4113 18.6381 16.8356 18.5537C17.26 18.4693 17.6498 18.2609 17.9557 17.955C18.3659 17.5447 18.5963 16.9883 18.5963 16.4081C18.5963 15.828 18.3659 15.2716 17.9557 14.8613Z" fill="#232C47"/>
</svg>
