<svg width="20" height="15" viewBox="0 0 20 15" fill="none" xmlns="http://www.w3.org/2000/svg">
<path d="M2.41455 0.5H7.22705C7.46768 0.5 7.66455 0.696875 7.66455 0.9375V1.22917C7.66455 1.46979 7.46768 1.66667 7.22705 1.66667H2.41455C2.09372 1.66667 1.83122 1.92917 1.83122 2.25V12.75C1.83122 13.0708 2.09372 13.3333 2.41455 13.3333H7.22705C7.46768 13.3333 7.66455 13.5302 7.66455 13.7708V14.0625C7.66455 14.3031 7.46768 14.5 7.22705 14.5H2.41455C1.4484 14.5 0.664551 13.7161 0.664551 12.75V2.25C0.664551 1.28385 1.4484 0.5 2.41455 0.5ZM12.5864 1.21094L12.3276 1.46979C12.1562 1.64115 12.1562 1.91823 12.3276 2.08958L17.1401 6.88021H6.93538C6.69476 6.88021 6.49788 7.07708 6.49788 7.31771V7.68229C6.49788 7.92292 6.69476 8.11979 6.93538 8.11979H17.1401L12.3312 12.9104C12.1599 13.0818 12.1599 13.3589 12.3312 13.5302L12.5901 13.7891C12.7614 13.9604 13.0385 13.9604 13.2099 13.7891L19.2073 7.8099C19.3786 7.63854 19.3786 7.36146 19.2073 7.1901L13.2062 1.21094C13.0349 1.03958 12.7578 1.03958 12.5864 1.21094Z" fill="#878B91"/>
</svg>
