<svg width="14" height="12" viewBox="0 0 14 12" fill="none" xmlns="http://www.w3.org/2000/svg">
<path d="M13.825 4.9H11.9V2.975C11.9 2.87875 11.8212 2.8 11.725 2.8H11.375C11.2788 2.8 11.2 2.87875 11.2 2.975V4.9H9.275C9.17875 4.9 9.1 4.97875 9.1 5.075V5.425C9.1 5.52125 9.17875 5.6 9.275 5.6H11.2V7.525C11.2 7.62125 11.2788 7.7 11.375 7.7H11.725C11.8212 7.7 11.9 7.62125 11.9 7.525V5.6H13.825C13.9212 5.6 14 5.52125 14 5.425V5.075C14 4.97875 13.9212 4.9 13.825 4.9ZM6.86 6.3C6.23219 6.3 5.93031 6.65 4.9 6.65C3.86969 6.65 3.57 6.3 2.94 6.3C1.31687 6.3 0 7.61687 0 9.24V10.15C0 10.7297 0.470312 11.2 1.05 11.2H8.75C9.32969 11.2 9.8 10.7297 9.8 10.15V9.24C9.8 7.61687 8.48312 6.3 6.86 6.3ZM9.1 10.15C9.1 10.3425 8.9425 10.5 8.75 10.5H1.05C0.8575 10.5 0.7 10.3425 0.7 10.15V9.24C0.7 8.00406 1.70406 7 2.94 7C3.36875 7 3.79531 7.35 4.9 7.35C6.0025 7.35 6.43125 7 6.86 7C8.09594 7 9.1 8.00406 9.1 9.24V10.15ZM4.9 5.6C6.44656 5.6 7.7 4.34656 7.7 2.8C7.7 1.25344 6.44656 0 4.9 0C3.35344 0 2.1 1.25344 2.1 2.8C2.1 4.34656 3.35344 5.6 4.9 5.6ZM4.9 0.7C6.05719 0.7 7 1.64281 7 2.8C7 3.95719 6.05719 4.9 4.9 4.9C3.74281 4.9 2.8 3.95719 2.8 2.8C2.8 1.64281 3.74281 0.7 4.9 0.7Z" fill="#4B5268"/>
</svg>
