<svg width="18" height="18" viewBox="0 0 18 18" fill="none" xmlns="http://www.w3.org/2000/svg">
<path d="M17.877 16.4843L13.609 12.2163C13.5281 12.1354 13.4227 12.0933 13.3102 12.0933H12.8461C13.9535 10.8101 14.625 9.14014 14.625 7.31201C14.625 3.27256 11.352 -0.000488281 7.3125 -0.000488281C3.27305 -0.000488281 0 3.27256 0 7.31201C0 11.3515 3.27305 14.6245 7.3125 14.6245C9.14062 14.6245 10.8105 13.953 12.0938 12.8456V13.3097C12.0938 13.4222 12.1395 13.5276 12.2168 13.6085L16.4848 17.8765C16.65 18.0417 16.9172 18.0417 17.0824 17.8765L17.877 17.0819C18.0422 16.9167 18.0422 16.6495 17.877 16.4843ZM7.3125 12.937C4.20469 12.937 1.6875 10.4198 1.6875 7.31201C1.6875 4.2042 4.20469 1.68701 7.3125 1.68701C10.4203 1.68701 12.9375 4.2042 12.9375 7.31201C12.9375 10.4198 10.4203 12.937 7.3125 12.937Z" fill="#232C47"/>
</svg>
